<?xml version="1.0" standalone="no"?>
<!DOCTYPE svg PUBLIC "-//W3C//DTD SVG 20010904//EN"
 "http://www.w3.org/TR/2001/REC-SVG-20010904/DTD/svg10.dtd">
<svg version="1.0" xmlns="http://www.w3.org/2000/svg"
 width="300.000000pt" height="300.000000pt" viewBox="0 0 300.000000 300.000000"
 preserveAspectRatio="xMidYMid meet">
<metadata>
Created by potrace 1.11, written by Peter Selinger 2001-2013
</metadata>
<g transform="translate(0.000000,300.000000) scale(0.100000,-0.100000)"
fill="#000000" stroke="none">
<path d="M755 2249 l-750 -751 750 -744 750 -745 749 751 748 752 -23 22 c-13
12 -350 347 -749 744 l-726 721 -749 -750z m1158 -52 c213 -142 387 -261 387
-264 0 -2 -5 -1 -12 3 -14 9 21 -41 52 -73 50 -54 28 -41 -433 258 l-397 259
-218 -142 c-382 -248 -633 -408 -641 -408 -5 0 -16 11 -25 24 l-15 24 412 272
c227 150 428 282 447 295 19 12 40 20 45 17 6 -3 184 -122 398 -265z m-347
-87 c-65 -69 -98 -145 -104 -237 -5 -82 4 -124 55 -264 l37 -99 153 0 153 0 0
265 0 265 35 0 35 0 0 -600 0 -600 -35 0 -35 0 0 300 0 300 -139 0 -138 0 19
-67 c42 -149 32 -296 -28 -416 -34 -67 -102 -163 -148 -207 l-37 -35 55 115
c77 163 90 213 83 329 -3 68 -13 123 -34 186 l-29 90 -152 3 -152 3 0 -164 c0
-90 -3 -225 -7 -300 l-6 -137 -27 2 c-27 2 -27 3 -34 92 -3 49 -6 318 -6 598
l0 508 40 0 40 0 0 -265 0 -265 139 0 139 0 -18 48 c-33 88 -53 200 -48 276 8
120 75 233 177 298 65 41 70 35 17 -22z"/>
</g>
</svg>
